<svg height="512" viewBox="0 0 50 56" width="512" xmlns="http://www.w3.org/2000/svg"><g id="Page-1" fill="none" fill-rule="evenodd"><g id="002---Alarm" fill="rgb(0,0,0)" fill-rule="nonzero"><path id="Shape" d="m38 34v-4.139c-5.8241754.7522846-11.5908366-1.7554734-15.0122519-6.5284042-3.4214153-4.7729307-3.944504-11.0394776-1.3617481-16.3135958-8.6805041.2082518-15.61276959 7.2980083-15.626 15.981v11c-.2737069 4.5936874-2.14912323 8.9460687-5.3 12.3-.28454877.3027555-.35910392.7469307-.189 1.126.15242029.3596872.50948931.5894016.9.579h41.179c.3905107.0104016.7475797-.2193128.9-.579.1700945-.3803826.0947513-.8257357-.191-1.129-3.1503014-3.3530143-5.0253801-7.7043715-5.299-12.297zm-29 12h-4c-.55228475 0-1-.4477153-1-1s.44771525-1 1-1h4c.55228475 0 1 .4477153 1 1s-.44771525 1-1 1zm0-22c-.55228475 0-1-.4477153-1-1-.0065679-4.253626 1.92931921-8.2774872 5.257-10.927.2779125-.2315358.6591983-.2949398.9970866-.1658055s.5796999.4306739.6323526.7885451c.0526527.3578713-.0920624.7162796-.3784392.9372604-2.852681 2.2713418-4.51264999 5.7205276-4.508 9.367 0 .2652165-.10535684.5195704-.29289322.7071068s-.44189029.2928932-.70710678.2928932zm30 22h-26c-.5522847 0-1-.4477153-1-1s.4477153-1 1-1h26c.5522847 0 1 .4477153 1 1s-.4477153 1-1 1z"/><path id="Shape" d="m15.071 50c.4946494 3.4465051 3.4471793 6.0055358 6.929 6.0055358s6.4343506-2.5590307 6.929-6.0055358z"/><path id="Shape" d="m22 5c.255 0 .506.018.76.029.8981308-1.31757913 1.9870159-2.49442434 3.231-3.492-1.0925353-.99141856-2.5156906-1.53949914-3.991-1.537-3.3123376.00330738-5.9966926 2.68766243-6 6v.049c1.9252772-.69028007 3.9547216-1.0450946 6-1.049z"/><circle id="Oval" cx="36" cy="23" r="1"/><path id="Shape" d="m36 0c-7.7319865 0-14 6.2680135-14 14s6.2680135 14 14 14 14-6.2680135 14-14c-.0082673-7.72855947-6.2714405-13.99173268-14-14zm0 26c-1.6568542 0-3-1.3431458-3-3s1.3431458-3 3-3 3 1.3431458 3 3-1.3431458 3-3 3zm4.424-18.9-1.152 8.06c-.2319259 1.6288897-1.626682 2.8391234-3.272 2.8391234s-3.0400741-1.2102337-3.272-2.8391234l-1.152-8.06c-.2475474-1.73118331.53742-3.44769193 2.0088404-4.39278327 1.4714203-.94509133 3.3588989-.94509133 4.8303192 0 1.4714204.94509134 2.2563878 2.66159996 2.0088404 4.39278327z"/><path id="Shape" d="m36 4c-.7155628.0003946-1.3957879.31108738-1.8646218.85166585-.4688338.54057847-.6801945 1.25790889-.5793782 1.96633415l1.151 8.06c.091522.6437976.6427295 1.1221876 1.293 1.1221876s1.201478-.47839 1.293-1.1221876l1.151-8.061c.1004983-.70826735-.1110076-1.42531781-.5798047-1.96566203-.468797-.54034422-1.1488336-.85090233-1.8641953-.85133797z"/></g></g></svg>